<?xml version="1.0" encoding="UTF-8"?>
<svg width="24px" height="24px" viewBox="0 0 24 24" version="1.1" xmlns="http://www.w3.org/2000/svg" xmlns:xlink="http://www.w3.org/1999/xlink">
    <!-- Generator: Sketch 50.2 (55047) - http://www.bohemiancoding.com/sketch -->
    <title>icon/tag</title>
    <desc>Created with Sketch.</desc>
    <defs>
        <path d="M14,22 C13.744,22 13.488,21.902 13.293,21.707 L2.293,10.707 C2.105,10.52 2,10.266 2,10 L2,3 C2,2.447 2.447,2 3,2 L10,2 C10.266,2 10.52,2.105 10.707,2.293 L21.707,13.293 C22.098,13.684 22.098,14.316 21.707,14.707 L14.707,21.707 C14.512,21.902 14.256,22 14,22 Z M4,9.586 L14,19.586 L19.586,14 L9.586,4 L4,4 L4,9.586 Z M7,9 C5.8954305,9 5,8.1045695 5,7 C5,5.8954305 5.8954305,5 7,5 C8.1045695,5 9,5.8954305 9,7 C9,8.1045695 8.1045695,9 7,9 Z" id="path-1"></path>
    </defs>
    <g id="icon/tag" stroke="none" stroke-width="1" fill="none" fill-rule="evenodd">
        <polygon id="canvas" points="0 0 24 0 24 24 0 24"></polygon>
        <mask id="mask-2" fill="white">
            <use xlink:href="#path-1"></use>
        </mask>
        <use id="tag" fill="#000000" fill-rule="nonzero" xlink:href="#path-1"></use>
    </g>
</svg>